{
  "accessors": [
    {
      "bufferView": 2,
      "componentType": 5126,
      "count": 3995,
      "max": [
        3.673920154571533,
        0.37000030279159546,
        7.349999904632568
      ],
      "min": [
        -3.673920154571533,
        -0.37759169936180115,
        -7.350002765655518
      ],
      "type": "VEC3"
    },
    {
      "bufferView": 2,
      "byteOffset": 47940,
      "componentType": 5126,
      "count": 3995,
      "max": [
        1.0,
        1.0,
        1.0
      ],
      "min": [
        -1.0,
        -1.0,
        -1.0
      ],
      "type": "VEC3"
    },
    {
      "bufferView": 3,
      "componentType": 5126,
      "count": 3995,
      "max": [
        1.0,
        1.0,
        1.0,
        1.0
      ],
      "min": [
        -1.0,
        -1.0,
        -1.0,
        1.0
      ],
      "type": "VEC4"
    },
    {
      "bufferView": 1,
      "componentType": 5126,
      "count": 3995,
      "max": [
        0.993896484375,
        0.997314453125
      ],
      "min": [
        0.00439453125,
        0.00390625
      ],
      "type": "VEC2"
    },
    {
      "bufferView": 0,
      "componentType": 5125,
      "count": 12756,
      "type": "SCALAR"
    },
    {
      "bufferView": 2,
      "byteOffset": 95880,
      "componentType": 5126,
      "count": 192,
      "max": [
        3.4987385272979736,
        0.3096739649772644,
        7.248739242553711
      ],
      "min": [
        -3.4987385272979736,
        -0.36077672243118286,
        -7.248739242553711
      ],
      "type": "VEC3"
    },
    {
      "bufferView": 2,
      "byteOffset": 98184,
      "componentType": 5126,
      "count": 192,
      "max": [
        0.8430860638618469,
        1.0,
        0.8430777788162231
      ],
      "min": [
        -0.8430835008621216,
        -1.0,
        -0.8430938720703125
      ],
      "type": "VEC3"
    },
    {
      "bufferView": 3,
      "byteOffset": 63920,
      "componentType": 5126,
      "count": 192,
      "max": [
        1.0,
        0.8425256609916687,
        0.8819323778152466,
        1.0
      ],
      "min": [
        0.4713760316371918,
        -0.8428310751914978,
        -0.2831183671951294,
        1.0
      ],
      "type": "VEC4"
    },
    {
      "bufferView": 1,
      "byteOffset": 31960,
      "componentType": 5126,
      "count": 192,
      "max": [
        0.9771814346313477,
        0.995361328125
      ],
      "min": [
        0.013671875,
        0.005126953125
      ],
      "type": "VEC2"
    },
    {
      "bufferView": 1,
      "byteOffset": 33496,
      "componentType": 5126,
      "count": 192,
      "max": [
        0.9771814346313477,
        0.995361328125
      ],
      "min": [
        0.013671875,
        0.005126953125
      ],
      "type": "VEC2"
    },
    {
      "bufferView": 0,
      "byteOffset": 51024,
      "componentType": 5125,
      "count": 594,
      "type": "SCALAR"
    },
    {
      "bufferView": 2,
      "byteOffset": 100488,
      "componentType": 5126,
      "count": 533,
      "max": [
        3.4987385272979736,
        0.3700000047683716,
        7.248739242553711
      ],
      "min": [
        -3.4987385272979736,
        -0.3700004518032074,
        -7.248739242553711
      ],
      "type": "VEC3"
    },
    {
      "bufferView": 2,
      "byteOffset": 106884,
      "componentType": 5126,
      "count": 533,
      "max": [
        0.784069299697876,
        1.0,
        0.7439815402030945
      ],
      "min": [
        -0.7320428490638733,
        -1.0,
        -0.7433981895446777
      ],
      "type": "VEC3"
    },
    {
      "bufferView": 1,
      "byteOffset": 35032,
      "componentType": 5126,
      "count": 533,
      "max": [
        0.9833835959434509,
        0.982366144657135
      ],
      "min": [
        0.015380859375,
        0.009033203125
      ],
      "type": "VEC2"
    },
    {
      "bufferView": 1,
      "byteOffset": 39296,
      "componentType": 5126,
      "count": 533,
      "max": [
        0.9833835959434509,
        0.982366144657135
      ],
      "min": [
        0.015380859375,
        0.009033203125
      ],
      "type": "VEC2"
    },
    {
      "bufferView": 0,
      "byteOffset": 53400,
      "componentType": 5125,
      "count": 1632,
      "type": "SCALAR"
    }
  ],
  "asset": {
    "extras": {
      "author": "Rescue3D Assets (https://sketchfab.com/rescue3d)",
      "license": "CC-BY-4.0 (http://creativecommons.org/licenses/by/4.0/)",
      "source": "https://sketchfab.com/3d-models/apple-iphone-based-mobile-phone-ae46f6a92de042d8bc8082226f7d3489",
      "title": "Apple iPhone based mobile phone"
    },
    "generator": "Sketchfab-14.64.0",
    "version": "2.0"
  },
  "bufferViews": [
    {
      "buffer": 0,
      "byteLength": 59928,
      "name": "floatBufferViews",
      "target": 34963
    },
    {
      "buffer": 0,
      "byteLength": 43560,
      "byteOffset": 59928,
      "byteStride": 8,
      "name": "floatBufferViews",
      "target": 34962
    },
    {
      "buffer": 0,
      "byteLength": 113280,
      "byteOffset": 103488,
      "byteStride": 12,
      "name": "floatBufferViews",
      "target": 34962
    },
    {
      "buffer": 0,
      "byteLength": 66992,
      "byteOffset": 216768,
      "byteStride": 16,
      "name": "floatBufferViews",
      "target": 34962
    }
  ],
  "buffers": [
    {
      "byteLength": 283760,
      "uri": "scene.bin"
    }
  ],
  "images": [
    {
      "uri": "textures/Phone_Main_baseColor.png"
    },
    {
      "uri": "textures/Phone_Main_metallicRoughness.png"
    },
    {
      "uri": "textures/Phone_Main_normal.png"
    },
    {
      "uri": "textures/Phone_Emission_baseColor.png"
    },
    {
      "uri": "textures/Phone_Emission_metallicRoughness.png"
    },
    {
      "uri": "textures/Phone_Emission_emissive.png"
    },
    {
      "uri": "textures/Phone_Emission_normal.png"
    },
    {
      "uri": "textures/Phone_Alpha_baseColor.png"
    },
    {
      "uri": "textures/Phone_Alpha_metallicRoughness.png"
    }
  ],
  "materials": [
    {
      "doubleSided": true,
      "name": "Phone_Main",
      "normalTexture": {
        "index": 2
      },
      "occlusionTexture": {
        "index": 1
      },
      "pbrMetallicRoughness": {
        "baseColorTexture": {
          "index": 0
        },
        "metallicRoughnessTexture": {
          "index": 1
        }
      }
    },
    {
      "doubleSided": true,
      "emissiveFactor": [
        1.0,
        1.0,
        1.0
      ],
      "emissiveTexture": {
        "index": 5
      },
      "name": "Phone_Emission",
      "normalTexture": {
        "index": 6
      },
      "pbrMetallicRoughness": {
        "baseColorTexture": {
          "index": 3
        },
        "metallicRoughnessTexture": {
          "index": 4
        }
      }
    },
    {
      "alphaMode": "BLEND",
      "doubleSided": true,
      "name": "Phone_Alpha",
      "pbrMetallicRoughness": {
        "baseColorTexture": {
          "index": 7
        },
        "metallicRoughnessTexture": {
          "index": 8
        }
      }
    }
  ],
  "meshes": [
    {
      "name": "MobilePhone_Phone_Main_0",
      "primitives": [
        {
          "attributes": {
            "NORMAL": 1,
            "POSITION": 0,
            "TANGENT": 2,
            "TEXCOORD_0": 3
          },
          "indices": 4,
          "material": 0,
          "mode": 4
        }
      ]
    },
    {
      "name": "MobilePhone_Phone_Emission_0",
      "primitives": [
        {
          "attributes": {
            "NORMAL": 6,
            "POSITION": 5,
            "TANGENT": 7,
            "TEXCOORD_0": 8,
            "TEXCOORD_1": 9
          },
          "indices": 10,
          "material": 1,
          "mode": 4
        }
      ]
    },
    {
      "name": "MobilePhone_Phone_Alpha_0",
      "primitives": [
        {
          "attributes": {
            "NORMAL": 12,
            "POSITION": 11,
            "TEXCOORD_0": 13,
            "TEXCOORD_1": 14
          },
          "indices": 15,
          "material": 2,
          "mode": 4
        }
      ]
    }
  ],
  "nodes": [
    {
      "children": [
        1
      ],
      "matrix": [
        1.0,
        0.0,
        0.0,
        0.0,
        0.0,
        2.220446049250313e-16,
        -1.0,
        0.0,
        0.0,
        1.0,
        2.220446049250313e-16,
        0.0,
        0.0,
        0.0,
        0.0,
        1.0
      ],
      "name": "Sketchfab_model"
    },
    {
      "children": [
        2
      ],
      "matrix": [
        0.009999999776482582,
        0.0,
        0.0,
        0.0,
        0.0,
        0.0,
        0.009999999776482582,
        0.0,
        0.0,
        -0.009999999776482582,
        0.0,
        0.0,
        0.0,
        0.0,
        0.0,
        1.0
      ],
      "name": "7a704550d49a492d82894e7dfa5d8a9c.fbx"
    },
    {
      "children": [
        3
      ],
      "name": "RootNode"
    },
    {
      "children": [
        4
      ],
      "matrix": [
        1.0,
        0.0,
        0.0,
        0.0,
        0.0,
        0.999999999999999,
        4.371138828673792e-08,
        0.0,
        0.0,
        -4.371138828673792e-08,
        0.999999999999999,
        0.0,
        0.0,
        0.0,
        0.0,
        1.0
      ],
      "name": "MobilePhone"
    },
    {
      "children": [
        5,
        6,
        7
      ],
      "matrix": [
        1.0,
        0.0,
        0.0,
        0.0,
        0.0,
        6.123233995736766e-17,
        -1.0,
        0.0,
        -0.0,
        1.0,
        6.123233995736766e-17,
        0.0,
        0.0,
        0.0,
        0.0,
        1.0
      ],
      "name": "Object_4"
    },
    {
      "mesh": 0,
      "name": "MobilePhone_Phone_Main_0"
    },
    {
      "mesh": 1,
      "name": "MobilePhone_Phone_Emission_0"
    },
    {
      "mesh": 2,
      "name": "MobilePhone_Phone_Alpha_0"
    }
  ],
  "samplers": [
    {
      "magFilter": 9729,
      "minFilter": 9987,
      "wrapS": 10497,
      "wrapT": 10497
    }
  ],
  "scene": 0,
  "scenes": [
    {
      "name": "Sketchfab_Scene",
      "nodes": [
        0
      ]
    }
  ],
  "textures": [
    {
      "sampler": 0,
      "source": 0
    },
    {
      "sampler": 0,
      "source": 1
    },
    {
      "sampler": 0,
      "source": 2
    },
    {
      "sampler": 0,
      "source": 3
    },
    {
      "sampler": 0,
      "source": 4
    },
    {
      "sampler": 0,
      "source": 5
    },
    {
      "sampler": 0,
      "source": 6
    },
    {
      "sampler": 0,
      "source": 7
    },
    {
      "sampler": 0,
      "source": 8
    }
  ]
}
